<svg width="26" height="26" viewBox="0 0 24 24" fill="none" xmlns="http://www.w3.org/2000/svg">
<g clip-path="url(#clip0_10_81)">
<path fill-rule="evenodd" clip-rule="evenodd" d="M16.2 19H7.8C7.1376 19 6.6 18.4773 6.6 17.8333V7.91667H6V6.75H9.6V5.875C9.6 5.39258 10.0038 5 10.5 5H13.5C13.995 5 14.4 5.39142 14.4 5.875V6.75H18V7.91667H17.4V17.8333C17.4 18.4773 16.8624 19 16.2 19ZM16.2 7.91667H7.8V17.5417C7.8 17.7027 7.9344 17.8333 8.1 17.8333H15.9C16.0656 17.8333 16.2 17.7027 16.2 17.5417V7.91667ZM10.8 10.25C10.8 9.928 10.5312 9.66667 10.2 9.66667C9.8688 9.66667 9.6 9.928 9.6 10.25V15.5C9.6 15.822 9.8688 16.0833 10.2 16.0833C10.5312 16.0833 10.8 15.822 10.8 15.5V10.25ZM14.4 10.25C14.4 9.928 14.1312 9.66667 13.8 9.66667C13.4688 9.66667 13.2 9.928 13.2 10.25V15.5C13.2 15.822 13.4688 16.0833 13.8 16.0833C14.1312 16.0833 14.4 15.822 14.4 15.5V10.25ZM13.2 6.16667H10.8V6.75H13.2V6.16667Z" fill="#FE2942"/>
</g>
<defs>
<clipPath id="clip0_10_81">
<rect width="24" height="24" fill="white"/>
</clipPath>
</defs>
</svg>
