<svg width="26" height="26" viewBox="0 0 24 24" fill="none" xmlns="http://www.w3.org/2000/svg">
<path d="M9.77089 17.6923L18.783 8.67737C18.916 8.54434 19 8.3483 19 8.14525C19 7.9671 18.9354 7.78273 18.7822 7.63025L16.3594 5.21549C16.2156 5.07157 16.0258 5 15.8368 5C15.6478 5 15.4588 5.07157 15.3141 5.21549L6.28722 14.2133C5.84467 15.5848 5.07778 17.9653 5.02256 18.166C5.007 18.2244 5 18.2827 5 18.3403C5 18.6989 5.27144 19 5.595 19C5.99244 19 6.36578 18.853 9.77089 17.6923ZM7.22756 15.0924L8.88967 16.7548L6.42567 17.5686L7.22756 15.0924ZM7.97033 14.1853L15.8368 6.3443L17.6529 8.15459L9.79811 16.0127L7.97033 14.1853Z" fill="#FE2942"/>
</svg>
