<svg width="319" height="53" viewBox="0 0 319 53" fill="none" xmlns="http://www.w3.org/2000/svg">
<path d="M229.132 22.458H242.356V26.524H229.132V22.458ZM229.512 33.858H244.522V38H224.572V11.4H243.99V15.542H229.512V33.858ZM246.428 38L255.358 26.372L255.282 28.918L246.77 17.708H252.052L258.018 25.688H256.004L262.008 17.708H267.138L258.55 28.918L258.588 26.372L267.48 38H262.122L255.852 29.526L257.828 29.792L251.672 38H246.428ZM282.233 38.266C280.586 38.266 279.079 37.886 277.711 37.126C276.368 36.366 275.292 35.226 274.481 33.706C273.696 32.1607 273.303 30.21 273.303 27.854C273.303 25.4727 273.683 23.522 274.443 22.002C275.228 20.482 276.292 19.3547 277.635 18.62C278.978 17.86 280.51 17.48 282.233 17.48C284.234 17.48 285.995 17.9107 287.515 18.772C289.06 19.6333 290.276 20.8367 291.163 22.382C292.075 23.9273 292.531 25.7513 292.531 27.854C292.531 29.9567 292.075 31.7933 291.163 33.364C290.276 34.9093 289.06 36.1127 287.515 36.974C285.995 37.8353 284.234 38.266 282.233 38.266ZM270.985 45.372V17.708H275.507V22.496L275.355 27.892L275.735 33.288V45.372H270.985ZM281.701 34.2C282.841 34.2 283.854 33.9467 284.741 33.44C285.653 32.9333 286.375 32.1987 286.907 31.236C287.439 30.2733 287.705 29.146 287.705 27.854C287.705 26.5367 287.439 25.4093 286.907 24.472C286.375 23.5093 285.653 22.7747 284.741 22.268C283.854 21.7613 282.841 21.508 281.701 21.508C280.561 21.508 279.535 21.7613 278.623 22.268C277.711 22.7747 276.989 23.5093 276.457 24.472C275.925 25.4093 275.659 26.5367 275.659 27.854C275.659 29.146 275.925 30.2733 276.457 31.236C276.989 32.1987 277.711 32.9333 278.623 33.44C279.535 33.9467 280.561 34.2 281.701 34.2ZM306.156 38.266C304.079 38.266 302.229 37.8227 300.608 36.936C298.987 36.024 297.707 34.7827 296.77 33.212C295.833 31.6413 295.364 29.8553 295.364 27.854C295.364 25.8273 295.833 24.0413 296.77 22.496C297.707 20.9253 298.987 19.6967 300.608 18.81C302.229 17.9233 304.079 17.48 306.156 17.48C308.259 17.48 310.121 17.9233 311.742 18.81C313.389 19.6967 314.668 20.9127 315.58 22.458C316.517 24.0033 316.986 25.802 316.986 27.854C316.986 29.8553 316.517 31.6413 315.58 33.212C314.668 34.7827 313.389 36.024 311.742 36.936C310.121 37.8227 308.259 38.266 306.156 38.266ZM306.156 34.2C307.321 34.2 308.36 33.9467 309.272 33.44C310.184 32.9333 310.893 32.1987 311.4 31.236C311.932 30.2733 312.198 29.146 312.198 27.854C312.198 26.5367 311.932 25.4093 311.4 24.472C310.893 23.5093 310.184 22.7747 309.272 22.268C308.36 21.7613 307.334 21.508 306.194 21.508C305.029 21.508 303.99 21.7613 303.078 22.268C302.191 22.7747 301.482 23.5093 300.95 24.472C300.418 25.4093 300.152 26.5367 300.152 27.854C300.152 29.146 300.418 30.2733 300.95 31.236C301.482 32.1987 302.191 32.9333 303.078 33.44C303.99 33.9467 305.016 34.2 306.156 34.2Z" fill="black"/>
<g clip-path="url(#clip0_351_24)">
<path d="M48.778 31.6959L52.4182 28.0199L40.4546 15.9389C39.7656 15.2432 38.6576 15.2321 37.9531 15.902C37.8976 15.9462 37.8434 15.993 37.7922 16.0447L24.9733 28.9893L21.9716 25.9582L21.9965 25.933L19.6273 23.5405C18.9253 22.8317 17.7872 22.8317 17.0853 23.5405L2.67358 38.0935L6.31382 41.7695L18.3313 29.6341L23.7041 35.0596C23.8199 35.1766 23.9485 35.2723 24.0842 35.3507C24.7163 35.7871 25.5855 35.723 26.1467 35.1563L26.2088 35.0935C26.221 35.0819 26.2341 35.0717 26.2461 35.0596L28.6114 32.671C28.6124 32.67 28.6114 32.6687 28.6114 32.6674L39.1758 21.9995L48.778 31.6959Z" fill="url(#paint0_linear_351_24)"/>
<path d="M5.94617 32.3235C5.42637 30.4725 5.14809 28.5191 5.14809 26.5C5.14809 14.7355 14.5925 5.19856 26.2427 5.19856C35.3718 5.19856 43.1457 11.0549 46.0831 19.2499L52.4725 25.702C52.0545 11.4357 40.4716 0 26.2427 0C11.7493 0 0 11.8644 0 26.5C0 30.0043 0.675127 33.3489 1.89868 36.4106L5.94617 32.3235Z" fill="url(#paint1_linear_351_24)"/>
<path d="M47.3372 26.4999C47.3372 38.2644 37.8929 47.8013 26.2426 47.8013C17.2769 47.8013 9.61864 42.1525 6.56491 34.1875L2.65845 38.1323C6.92494 46.9363 15.882 52.9999 26.2426 52.9999C40.1867 52.9999 51.5887 42.0173 52.4331 28.1512L46.9945 22.6592C47.2192 23.9051 47.3372 25.1885 47.3372 26.4999Z" fill="url(#paint2_linear_351_24)"/>
<path d="M64.0371 38.3506L71.5351 9.5459H80.9077L88.4057 38.3506H82.8637L81.3153 32.0135H71.1277L69.5791 38.3506H64.0371ZM72.3909 26.9934H80.052L76.5882 12.9613H75.8547L72.3909 26.9934Z" fill="#E50000"/>
<path d="M91.9915 46.5806V17.9404H97.0444V20.4093H97.778C98.2395 19.6139 98.9597 18.9074 99.9377 18.2901C100.916 17.6728 102.315 17.3643 104.135 17.3643C105.765 17.3643 107.273 17.7693 108.658 18.5782C110.044 19.3876 111.157 20.574 112 22.1376C112.842 23.7013 113.263 25.5942 113.263 27.8162V28.4746C113.263 30.6968 112.842 32.5895 112 34.1533C111.157 35.7169 110.044 36.9038 108.658 37.7126C107.273 38.5215 105.765 38.9266 104.135 38.9266C102.913 38.9266 101.887 38.7826 101.058 38.4946C100.229 38.2065 99.564 37.8362 99.0616 37.3836C98.5586 36.931 98.1581 36.4717 97.8595 36.005H97.126V46.5806L91.9915 46.5806ZM102.587 34.4002C104.189 34.4002 105.513 33.8858 106.56 32.8571C107.605 31.8283 108.129 30.3262 108.129 28.3511V27.9397C108.129 25.9645 107.599 24.4626 106.539 23.4339C105.48 22.4051 104.162 21.8908 102.587 21.8908C101.011 21.8908 99.6933 22.4051 98.6337 23.4339C97.5742 24.4626 97.0444 25.9645 97.0444 27.9397V28.3511C97.0444 30.3262 97.5742 31.8283 98.6337 32.8571C99.6933 33.8858 101.011 34.4002 102.587 34.4002Z" fill="#E50000"/>
<path d="M120.557 15.5537C119.633 15.5537 118.851 15.2522 118.213 14.6485C117.575 14.0453 117.256 13.2493 117.256 12.2617C117.256 11.2741 117.575 10.4787 118.213 9.87505C118.851 9.27189 119.633 8.96973 120.557 8.96973C121.507 8.96973 122.295 9.27189 122.92 9.87505C123.545 10.4787 123.857 11.2741 123.857 12.2617C123.857 13.2493 123.545 14.0453 122.92 14.6485C122.295 15.2522 121.507 15.5537 120.557 15.5537ZM117.989 38.3506V17.9405H123.124V38.3506H117.989Z" fill="#E50000"/>
<path d="M138.323 38.9267C136.367 38.9267 134.595 38.5151 133.005 37.6921C131.416 36.8692 130.159 35.6757 129.236 34.1121C128.312 32.5485 127.851 30.6553 127.851 28.4336V27.8575C127.851 25.6353 128.312 23.7424 129.236 22.1788C130.159 20.6151 131.416 19.4217 133.005 18.5988C134.595 17.7757 136.367 17.3643 138.323 17.3643C140.252 17.3643 141.909 17.7076 143.295 18.393C144.681 19.0791 145.801 20.0183 146.657 21.2117C147.513 22.4051 148.076 23.7566 148.348 25.265L143.377 26.3349C143.268 25.5119 143.023 24.7711 142.643 24.1127C142.262 23.4543 141.726 22.9336 141.033 22.5492C140.341 22.1652 139.478 21.973 138.446 21.973C137.413 21.973 136.483 22.1993 135.654 22.6521C134.825 23.1046 134.173 23.7771 133.698 24.6684C133.223 25.5601 132.985 26.6506 132.985 27.9397V28.3511C132.985 29.6409 133.223 30.7314 133.698 31.6225C134.173 32.5144 134.825 33.1861 135.654 33.639C136.483 34.0916 137.413 34.3179 138.446 34.3179C139.994 34.3179 141.169 33.9135 141.971 33.1039C142.772 32.295 143.281 31.2317 143.499 29.9149L148.47 31.1082C148.117 32.5626 147.513 33.8858 146.657 35.079C145.801 36.2726 144.681 37.2124 143.295 37.8979C141.909 38.5832 140.252 38.9267 138.323 38.9267Z" fill="#E50000"/>
<path d="M162.325 38.9267C160.314 38.9267 158.508 38.5151 156.905 37.6921C155.302 36.8692 154.039 35.6757 153.116 34.1121C152.192 32.5485 151.73 30.6697 151.73 28.4746V27.8162C151.73 25.6219 152.192 23.7424 153.116 22.1788C154.039 20.6151 155.302 19.4217 156.905 18.5988C158.508 17.7757 160.314 17.3643 162.325 17.3643C164.335 17.3643 166.142 17.7757 167.745 18.5988C169.348 19.4217 170.611 20.6151 171.535 22.1788C172.458 23.7424 172.92 25.6219 172.92 27.8162V28.4746C172.92 30.6697 172.458 32.5485 171.535 34.1121C170.611 35.6757 169.348 36.8692 167.745 37.6921C166.142 38.5151 164.335 38.9267 162.325 38.9267ZM162.325 34.3179C163.901 34.3179 165.205 33.8035 166.237 32.7748C167.269 31.7461 167.786 30.2717 167.786 28.3511V27.9397C167.786 26.0199 167.276 24.5448 166.258 23.5161C165.239 22.4874 163.928 21.973 162.325 21.973C160.749 21.973 159.445 22.4874 158.413 23.5161C157.38 24.5448 156.865 26.0199 156.865 27.9397V28.3511C156.865 30.2717 157.38 31.7461 158.413 32.7748C159.445 33.8035 160.749 34.3179 162.325 34.3179Z" fill="#E50000"/>
<path d="M177.647 38.3504V17.9403H182.7V20.2447H183.434C183.732 19.4216 184.229 18.8186 184.921 18.434C185.614 18.0503 186.422 17.8579 187.346 17.8579H189.791V22.4667H187.264C185.96 22.4667 184.887 22.8165 184.045 23.516C183.203 24.2156 182.782 25.2926 182.782 26.7464V38.3504H177.647Z" fill="#E50000"/>
<path d="M202.261 38.9267C200.25 38.9267 198.477 38.4946 196.943 37.6304C195.408 36.7662 194.212 35.546 193.357 33.9681C192.501 32.3909 192.073 30.532 192.073 28.3923V27.8985C192.073 25.7589 192.494 23.9007 193.336 22.3229C194.178 20.7456 195.36 19.5246 196.882 18.6604C198.403 17.7964 200.168 17.3643 202.179 17.3643C204.162 17.3643 205.887 17.8104 207.355 18.7015C208.822 19.5934 209.963 20.8279 210.778 22.4051C211.592 23.9829 212 25.8141 212 27.8985V29.6678H197.289C197.343 31.0669 197.86 32.2056 198.838 33.0834C199.816 33.9616 201.011 34.4001 202.424 34.4001C203.863 34.4001 204.923 34.0852 205.602 33.4537C206.281 32.823 206.797 32.1233 207.151 31.355L211.348 33.5772C210.967 34.2907 210.417 35.0657 209.698 35.9022C208.978 36.7393 208.02 37.4522 206.825 38.042C205.629 38.6314 204.108 38.9267 202.261 38.9267ZM197.33 25.8H206.784C206.675 24.6207 206.206 23.6742 205.378 22.9606C204.549 22.2475 203.469 21.8908 202.139 21.8908C200.753 21.8908 199.653 22.2475 198.838 22.9606C198.023 23.6742 197.52 24.6207 197.33 25.8Z" fill="#E50000"/>
</g>
<defs>
<linearGradient id="paint0_linear_351_24" x1="5.73076" y1="43.4407" x2="47.561" y2="19.5245" gradientUnits="userSpaceOnUse">
<stop stop-color="#D81B15"/>
<stop offset="1" stop-color="#FF0000"/>
</linearGradient>
<linearGradient id="paint1_linear_351_24" x1="0.280782" y1="33.5809" x2="45.738" y2="7.59099" gradientUnits="userSpaceOnUse">
<stop stop-color="#D81B15"/>
<stop offset="1" stop-color="#FF0000"/>
</linearGradient>
<linearGradient id="paint2_linear_351_24" x1="9.26349" y1="49.8087" x2="51.1299" y2="25.8718" gradientUnits="userSpaceOnUse">
<stop stop-color="#D81B15"/>
<stop offset="1" stop-color="#FF0000"/>
</linearGradient>
<clipPath id="clip0_351_24">
<rect width="212" height="53" fill="white"/>
</clipPath>
</defs>
</svg>
