<svg width="22" height="22" viewBox="0 0 22 22" fill="none" xmlns="http://www.w3.org/2000/svg">
<g clip-path="url(#clip0_228_14)">
<path d="M15.5833 2.75V0.916667C15.5833 0.410667 15.9931 0 16.5 0C17.0069 0 17.4167 0.410667 17.4167 0.916667V2.75C17.4167 3.256 17.0069 3.66667 16.5 3.66667C15.9931 3.66667 15.5833 3.256 15.5833 2.75ZM4.58333 3.66667C5.09025 3.66667 5.5 3.256 5.5 2.75V0.916667C5.5 0.410667 5.09025 0 4.58333 0C4.07642 0 3.66667 0.410667 3.66667 0.916667V2.75C3.66667 3.256 4.07642 3.66667 4.58333 3.66667ZM16.5 15.5833V12.8333H15.5833V16.5H18.3333V15.5833H16.5ZM11.9167 16.0417C11.9167 18.3159 13.7674 20.1667 16.0417 20.1667C18.3159 20.1667 20.1667 18.3159 20.1667 16.0417C20.1667 13.7674 18.3159 11.9167 16.0417 11.9167C13.7674 11.9167 11.9167 13.7674 11.9167 16.0417ZM22 16.0417C22 19.3325 19.3325 22 16.0417 22C12.7508 22 10.0833 19.3325 10.0833 16.0417C10.0833 12.7508 12.7508 10.0833 16.0417 10.0833C19.3325 10.0833 22 12.7508 22 16.0417ZM9.08696 19.6087H2.43478C1.8825 19.6087 1.43478 19.161 1.43478 18.6087V7.21739C1.43478 6.66511 1.8825 6.21739 2.43478 6.21739H18.6087C19.161 6.21739 19.6087 6.66511 19.6087 7.21739V9.08696C20.2751 9.38946 20.5324 9.64333 21.0833 10.1118V2.83333C21.0833 2.28105 20.6356 1.83333 20.0833 1.83333H18.3333V2.75C18.3333 3.95633 17.1618 4.89408 15.8968 4.48617C15.1351 4.2405 14.6667 3.46775 14.6667 2.6675V1.83333H6.41667V2.75C6.41667 3.95633 5.24517 4.89408 3.98017 4.48617C3.21842 4.2405 2.75 3.46775 2.75 2.6675V1.83333H1C0.447715 1.83333 0 2.28105 0 2.83333V20.0833C0 20.6356 0.447715 21.0833 1 21.0833H10.1118C9.64333 20.5324 9.38946 20.2751 9.08696 19.6087Z" fill="black"/>
</g>
<defs>
<clipPath id="clip0_228_14">
<rect width="22" height="22" fill="white"/>
</clipPath>
</defs>
</svg>
