<svg width="24" height="24" viewBox="0 0 24 24" fill="none" xmlns="http://www.w3.org/2000/svg">
<g clip-path="url(#clip0_4_11)">
<path d="M15.5354 18.5857C15.7925 18.8463 15.7911 19.2656 15.5323 19.5245V19.5245C15.2705 19.7864 14.8454 19.7846 14.5859 19.5204L11.9987 16.887L9.41412 19.52C9.15465 19.7844 8.72939 19.7863 8.46753 19.5244V19.5244C8.20876 19.2655 8.20729 18.8464 8.46423 18.5857L11.2867 15.7223C11.6783 15.325 12.3192 15.3249 12.7108 15.722L15.5354 18.5857Z" fill="#FE2942"/>
<path d="M7 12H17" stroke="#FE2942" stroke-width="0.8" stroke-linecap="round"/>
<path d="M8.46457 5.41433C8.20747 5.15367 8.20887 4.73439 8.46771 4.47546V4.47546C8.72951 4.21357 9.15463 4.21541 9.41414 4.47957L12.0013 7.113L14.5859 4.47996C14.8453 4.21562 15.2706 4.21368 15.5325 4.47564V4.47564C15.7912 4.7345 15.7927 5.15363 15.5358 5.4143L12.7133 8.27773C12.3217 8.67497 11.6808 8.67508 11.2892 8.27797L8.46457 5.41433Z" fill="#FE2942"/>
</g>
<defs>
<clipPath id="clip0_4_11">
<rect width="24" height="24" fill="white"/>
</clipPath>
</defs>
</svg>
