<svg xmlns="http://www.w3.org/2000/svg" viewBox="0 0 201.905 201.954">
	<style>
		.st0{fill:url(#SVGID_1_);}
		.st1{fill:url(#SVGID_00000157999817991089999180000017716027674990093968_);}
		.st2{fill:url(#SVGID_00000179640038105321911060000008094816031967205030_);}
	</style>
	<linearGradient id="SVGID_1_" gradientUnits="userSpaceOnUse" x1="22.0506" y1="38.4713" x2="182.2283" y2="130.9499" gradientTransform="matrix(1 0 0 -1 0 204)">
		<stop offset="0" style="stop-color:#D81B15"/>
		<stop offset="1" style="stop-color:#FF0000"/>
	</linearGradient>
	<path fill="url(#SVGID_1_)" d="M187.689,120.776l14.007-14.007l-46.034-46.034c-2.651-2.651-6.915-2.693-9.625-0.141
        c-0.214,0.168-0.422,0.347-0.619,0.544l-49.325,49.325l-11.55-11.55l0.096-0.096L75.522,89.7c-2.701-2.701-7.08-2.701-9.781,0
        l-55.454,55.454l14.007,14.007l46.241-46.241l20.673,20.673c0.446,0.446,0.94,0.811,1.463,1.109
        c2.432,1.663,5.777,1.418,7.936-0.741l0.239-0.239c0.047-0.044,0.097-0.083,0.143-0.129l9.102-9.102c0.004-0.004,0-0.009,0-0.014
        l40.65-40.65L187.689,120.776z"/>
	<linearGradient id="SVGID_00000053530074113624834460000015199278796607221169_" gradientUnits="userSpaceOnUse" x1="1.0804" y1="76.0415" x2="175.1467" y2="176.5387" gradientTransform="matrix(1 0 0 -1 0 204)">
		<stop offset="0" style="stop-color:#D81B15"/>
		<stop offset="1" style="stop-color:#FF0000"/>
	</linearGradient>
	<path fill="url(#SVGID_00000053530074113624834460000015199278796607221169_)" d="M22.88,123.167
        c-2-7.053-3.071-14.496-3.071-22.19c0-44.828,36.34-81.168,81.168-81.168c35.127,0,65.04,22.315,76.342,53.542l24.585,24.585
        C200.296,43.575,155.728,0,100.977,0C45.209,0,0,45.209,0,100.977c0,13.353,2.598,26.097,7.306,37.764L22.88,123.167z"/>
	<linearGradient id="SVGID_00000133523145752719035240000016393206845885854102_" gradientUnits="userSpaceOnUse" x1="35.6443" y1="14.2057" x2="195.9606" y2="106.7644" gradientTransform="matrix(1 0 0 -1 0 204)">
		<stop offset="0" style="stop-color:#D81B15"/>
		<stop offset="1" style="stop-color:#FF0000"/>
	</linearGradient>
	<path fill="url(#SVGID_00000133523145752719035240000016393206845885854102_)" d="M182.145,100.977
        c0,44.828-36.34,81.168-81.168,81.168c-34.499,0-63.966-21.525-75.716-51.875l-15.031,15.031
        c16.417,33.547,50.882,56.652,90.748,56.652c53.654,0,97.527-41.849,100.776-94.685l-20.927-20.927
        C181.691,91.09,182.145,95.98,182.145,100.977z"/>
</svg>
