<svg width="24" height="24" viewBox="0 0 24 24" fill="none" xmlns="http://www.w3.org/2000/svg">
<g clip-path="url(#clip0_4_5)">
<path d="M8.46457 16.4143C8.20747 16.1537 8.20887 15.7344 8.46771 15.4755V15.4755C8.72951 15.2136 9.15463 15.2154 9.41414 15.4796L12.0013 18.113L14.5859 15.48C14.8453 15.2156 15.2706 15.2137 15.5325 15.4756V15.4756C15.7912 15.7345 15.7927 16.1536 15.5358 16.4143L12.7133 19.2777C12.3217 19.675 11.6808 19.6751 11.2892 19.278L8.46457 16.4143Z" fill="#FE2942"/>
<path d="M7 12H17" stroke="#FE2942" stroke-width="0.8" stroke-linecap="round"/>
<path d="M15.5354 7.58567C15.7925 7.84633 15.7911 8.26561 15.5323 8.52454V8.52454C15.2705 8.78643 14.8454 8.78459 14.5859 8.52043L11.9987 5.887L9.41412 8.52004C9.15465 8.78438 8.72939 8.78632 8.46753 8.52436V8.52436C8.20876 8.2655 8.20729 7.84637 8.46423 7.5857L11.2867 4.72227C11.6783 4.32503 12.3192 4.32492 12.7108 4.72203L15.5354 7.58567Z" fill="#FE2942"/>
</g>
<defs>
<clipPath id="clip0_4_5">
<rect width="24" height="24" fill="white"/>
</clipPath>
</defs>
</svg>
