<svg width="1279" height="292" viewBox="0 0 1279 292" fill="none" xmlns="http://www.w3.org/2000/svg">
<path fill-rule="evenodd" clip-rule="evenodd" d="M904.636 2.00004L912 11L895 32L903.772 32.0086L920.5 11L913.615 2.08945C917.555 2.31172 921.686 2.9457 925.702 3.96289L930.5 11L912.229 33.7159C909.484 32.5151 906.502 32 903 32H847C841.409 32 837.97 34.0626 834 37.9995C830.279 41.6888 828 44.7604 828 50V112.5C828 117.566 830.514 120.325 834 124C837.968 128.183 847 131 847 131H892.789L914.5 158.5L911.001 161.999C910.835 162 910.668 162 910.5 162H837.5C824.394 162 815.437 157.326 807 148C798.382 138.474 795 129.5 795 117C795 117 795 46 795 38C795 30 802.141 20.9888 808.5 14.5C817.132 5.69214 828 1.99975 837.5 2C855.613 2.00047 869.389 2.00033 884.683 2.00017H884.684H884.687H884.69H884.692H884.694H884.697H884.7H884.704H884.708H884.712H884.717L904.636 2.00004ZM911.024 161.999L911 162L911.001 161.999C911.009 161.999 911.016 161.999 911.024 161.999ZM919.228 161.567C916.639 161.853 913.914 161.985 911.024 161.999L915.21 161.886L919.228 161.567ZM920.564 161.404L920.5 161.5L919.228 161.567C919.677 161.517 920.123 161.463 920.564 161.404ZM944.275 149.796C937.151 156.877 929.704 160.179 920.564 161.404L922.5 158.5L901.272 131H903C908.005 131 912.386 127.68 915.137 125.244L910.5 131L932 158.333L935.5 156.579L938.5 154.674V154.5L919.5 131L939.5 105.5L924 87.5V98L930.5 105.5L925 113L923.73 114.577C923.903 113.906 924 113.212 924 112.5V50C924 49.7798 923.997 49.5629 923.99 49.3493L924 52.5L930.5 58.5L924 64.5V75.5L938.5 58.5L919.5 35L939.5 11L936.782 7.98041C940.417 9.7809 943.604 11.9647 946 14.5L929 35L948 58.5L930.5 81.5L949 105.5L929 131L943.5 150.5L944.275 149.796ZM954.018 137C952.591 139.712 950.803 142.333 948.627 144.984L938.5 131L956.5 105.5L939.5 81.5L956.5 58.5L938.5 35L950.284 19.1914L946 14.5C950.336 19.0889 954.097 23.365 956.331 27.5H956L948 35L958.5 48.5V70.575L949 81.5L958.5 92.425V117C958.5 120.227 958.265 123.183 957.776 125.951L958.333 121.5L958.5 117L947 131L954 137H954.018ZM958.5 82.8333L957.5 81.5L958.5 79.8333V82.8333ZM904.636 2.00004L903 2.02115H912L913.615 2.08945C912.561 2.03 911.521 2 910.5 2L904.636 2.00004ZM1060.5 1V161H1090.5V1H1060.5ZM458.5 80L392.5 2H431.5L478.5 58.5L526.5 2H565.5L499.5 80V84L565.5 162H527.5L478.5 105L431.5 162H392.5L458.5 84V80ZM625.5 162H594.5V2H714.5L721.577 2.5308C740.294 3.93453 754.932 19.2396 755.5 38V57C754.919 76.4496 740.625 92.7546 721.419 95.8756L718.922 96.2814C715.979 96.7597 713.002 97 710.02 97H625.5V162ZM1180 161H1213.5L1279 1H1245L1197.5 116.5L1150.5 1H1114.5L1180 161ZM364 162H362L364 160V162ZM364 151.5L353.5 162H346L364 144V151.5ZM364 135L337 162H329.5L361.5 130H364V135ZM312.5 162L344.5 130H352L320.492 162H312.5ZM303.5 162H312.5H312.125H303.125H303.5ZM292.111 162L297 158L269 130H275.5L300 155L305.5 150.5L284.5 130H291.5L308.5 146.5L313.5 142L301 130H307L316 138.5L321.5 134L317 130H323.5L324.5 131.5L326.5 130H335.5L303.5 162H292.111ZM291.008 162H292.111H291.625H291.008ZM284.015 162L253 130H259.5L291.008 162H284.015ZM274.008 162H284.015H284.625H274.625H274.008ZM274.008 162H202V130H242.5L274.008 162ZM364 135V144V143V134V135ZM364 151.5V160V159V150.5V151.5ZM337 162H336.625H345.625H346H337ZM353.5 162H353.125H361.625H362H353.5ZM202 97H364V66H202V97ZM364 32H202V1.5H364V32ZM97.5 162H66.5V32H65.9921L96.0079 1.5H163V32H97.5V162ZM86.5 1.5H87H96.5H96.0079H86.5ZM75.5 1.5H86.5L56 32H45L75.5 1.5ZM66.5 1.5H67H76H75.5H66.5ZM55 1.5H66.5L38.5 29.5L10.5 1.5H20.5143L38 18.5L55 1.5ZM46 1.5H46.5H55.5H55H46ZM30.5312 1.5H30.5H20.5143H30.5312ZM30.5312 1.5H46L38.5 9L30.5312 1.5ZM0.5 1.5H0V11.5L20.5 32H10.5L0 21.5V32H10.5H11H21H20.5H31H31.5H44.5H45H31L0.5 1.5ZM56 32H65.9921H65.5H56ZM626 33V65.5C626 65.5 700.5 65.5 706.5 65.5C712.5 65.5 717 63.6772 718.5 62.5C721.419 60.2091 723.5 57 724 54.5C724.5 50.5 724.5 48.5 724 44C723.669 41.0183 721.5 37.5 718.5 35.5C718.035 35.1899 712 33 706.5 33H626Z" fill="white"/>
<path d="M423.655 276V230.5H460.38V238.885H434.12V248.245H446.73C452.233 248.245 456.415 249.393 459.275 251.69C462.178 253.987 463.63 257.323 463.63 261.7C463.63 266.207 462.027 269.717 458.82 272.23C455.613 274.743 451.085 276 445.235 276H423.655ZM434.12 268.2H444.65C447.337 268.2 449.395 267.68 450.825 266.64C452.255 265.557 452.97 263.997 452.97 261.96C452.97 257.973 450.197 255.98 444.65 255.98H434.12V268.2ZM469.563 276V241.03H479.638V261.83L496.668 241.03H505.963V276H495.888V255.2L478.923 276H469.563ZM538.266 267.68L536.056 270.02V241.03H546.196V270.02L543.856 267.68H559.976L557.701 270.02V241.03H567.776V276H514.411V241.03H524.486V270.02L522.211 267.68H538.266ZM600.971 276L589.271 259.425L597.526 254.55L612.931 276H600.971ZM576.206 276V241.03H586.346V276H576.206ZM583.356 262.74V254.615H595.576V262.74H583.356ZM598.501 259.685L589.011 258.645L601.296 241.03H612.086L598.501 259.685ZM632.626 276.52C628.64 276.52 625.13 275.74 622.096 274.18C619.106 272.62 616.788 270.497 615.141 267.81C613.495 265.08 612.671 261.982 612.671 258.515C612.671 255.005 613.473 251.907 615.076 249.22C616.723 246.49 618.955 244.367 621.771 242.85C624.588 241.29 627.773 240.51 631.326 240.51C634.75 240.51 637.826 241.247 640.556 242.72C643.33 244.15 645.518 246.23 647.121 248.96C648.725 251.647 649.526 254.875 649.526 258.645C649.526 259.035 649.505 259.49 649.461 260.01C649.418 260.487 649.375 260.942 649.331 261.375H620.926V255.46H644.001L640.101 257.215C640.101 255.395 639.733 253.813 638.996 252.47C638.26 251.127 637.241 250.087 635.941 249.35C634.641 248.57 633.125 248.18 631.391 248.18C629.658 248.18 628.12 248.57 626.776 249.35C625.476 250.087 624.458 251.148 623.721 252.535C622.985 253.878 622.616 255.482 622.616 257.345V258.905C622.616 260.812 623.028 262.502 623.851 263.975C624.718 265.405 625.91 266.51 627.426 267.29C628.986 268.027 630.806 268.395 632.886 268.395C634.75 268.395 636.375 268.113 637.761 267.55C639.191 266.987 640.491 266.142 641.661 265.015L647.056 270.865C645.453 272.685 643.438 274.093 641.011 275.09C638.585 276.043 635.79 276.52 632.626 276.52ZM680.764 276L669.064 259.425L677.319 254.55L692.724 276H680.764ZM655.999 276V241.03H666.139V276H655.999ZM663.149 262.74V254.615H675.369V262.74H663.149ZM678.294 259.685L668.804 258.645L681.089 241.03H691.879L678.294 259.685ZM710.781 276V269.175L728.331 252.6C729.718 251.343 730.736 250.217 731.386 249.22C732.036 248.223 732.47 247.313 732.686 246.49C732.946 245.667 733.076 244.908 733.076 244.215C733.076 242.395 732.448 241.008 731.191 240.055C729.978 239.058 728.18 238.56 725.796 238.56C723.89 238.56 722.113 238.928 720.466 239.665C718.863 240.402 717.498 241.55 716.371 243.11L708.701 238.17C710.435 235.57 712.861 233.512 715.981 231.995C719.101 230.478 722.698 229.72 726.771 229.72C730.151 229.72 733.098 230.283 735.611 231.41C738.168 232.493 740.14 234.032 741.526 236.025C742.956 238.018 743.671 240.402 743.671 243.175C743.671 244.648 743.476 246.122 743.086 247.595C742.74 249.025 742.003 250.542 740.876 252.145C739.793 253.748 738.19 255.547 736.066 257.54L721.506 271.255L719.491 267.42H745.166V276H710.781ZM767.711 276.78C763.985 276.78 760.648 275.87 757.701 274.05C754.755 272.187 752.436 269.5 750.746 265.99C749.056 262.48 748.211 258.233 748.211 253.25C748.211 248.267 749.056 244.02 750.746 240.51C752.436 237 754.755 234.335 757.701 232.515C760.648 230.652 763.985 229.72 767.711 229.72C771.481 229.72 774.818 230.652 777.721 232.515C780.668 234.335 782.986 237 784.676 240.51C786.366 244.02 787.211 248.267 787.211 253.25C787.211 258.233 786.366 262.48 784.676 265.99C782.986 269.5 780.668 272.187 777.721 274.05C774.818 275.87 771.481 276.78 767.711 276.78ZM767.711 267.875C769.488 267.875 771.026 267.377 772.326 266.38C773.67 265.383 774.71 263.802 775.446 261.635C776.226 259.468 776.616 256.673 776.616 253.25C776.616 249.827 776.226 247.032 775.446 244.865C774.71 242.698 773.67 241.117 772.326 240.12C771.026 239.123 769.488 238.625 767.711 238.625C765.978 238.625 764.44 239.123 763.096 240.12C761.796 241.117 760.756 242.698 759.976 244.865C759.24 247.032 758.871 249.827 758.871 253.25C758.871 256.673 759.24 259.468 759.976 261.635C760.756 263.802 761.796 265.383 763.096 266.38C764.44 267.377 765.978 267.875 767.711 267.875ZM790.383 276V269.175L807.933 252.6C809.32 251.343 810.338 250.217 810.988 249.22C811.638 248.223 812.072 247.313 812.288 246.49C812.548 245.667 812.678 244.908 812.678 244.215C812.678 242.395 812.05 241.008 810.793 240.055C809.58 239.058 807.782 238.56 805.398 238.56C803.492 238.56 801.715 238.928 800.068 239.665C798.465 240.402 797.1 241.55 795.973 243.11L788.303 238.17C790.037 235.57 792.463 233.512 795.583 231.995C798.703 230.478 802.3 229.72 806.373 229.72C809.753 229.72 812.7 230.283 815.213 231.41C817.77 232.493 819.742 234.032 821.128 236.025C822.558 238.018 823.273 240.402 823.273 243.175C823.273 244.648 823.078 246.122 822.688 247.595C822.342 249.025 821.605 250.542 820.478 252.145C819.395 253.748 817.792 255.547 815.668 257.54L801.108 271.255L799.093 267.42H824.768V276H790.383ZM843.283 276.78C840.12 276.78 836.978 276.368 833.858 275.545C830.782 274.678 828.138 273.465 825.928 271.905L830.088 263.845C831.822 265.102 833.815 266.098 836.068 266.835C838.365 267.572 840.683 267.94 843.023 267.94C845.667 267.94 847.747 267.42 849.263 266.38C850.78 265.34 851.538 263.888 851.538 262.025C851.538 260.855 851.235 259.815 850.628 258.905C850.022 257.995 848.938 257.302 847.378 256.825C845.862 256.348 843.717 256.11 840.943 256.11H829.308L831.648 230.5H859.403V238.95H835.418L840.878 234.14L839.253 252.405L833.793 247.595H843.413C847.92 247.595 851.538 248.223 854.268 249.48C857.042 250.693 859.057 252.362 860.313 254.485C861.57 256.608 862.198 259.013 862.198 261.7C862.198 264.387 861.527 266.878 860.183 269.175C858.84 271.428 856.76 273.27 853.943 274.7C851.17 276.087 847.617 276.78 843.283 276.78Z" fill="white"/>
</svg>
