<svg xmlns="http://www.w3.org/2000/svg" enable-background="new 0 0 68 68" viewBox="0 0 68 68"><path d="M64.7,16.8l-7.9-1L51.4,10c-0.6-0.6-1.5-0.8-2.1-0.4l-1.6,0.9L32.2,1.6c-0.2-0.1-0.3-0.1-0.5,0L2.1,18.7
		c-0.2,0.1-0.3,0.3-0.3,0.4c0,0.2,0.1,25.8,0.1,26c0,0.2,0.1,0.3,0.3,0.4l15.2,8.8c0,0.6,0,2.9,0,2.7c0,0.9,0.6,1.6,1.5,1.7l7.8,1
		l3,5.1c0.6,1,1.7,1.6,2.8,1.6c1.1,0,1.8-0.5,2-0.6L60,51.1c1.8-1,2.2-3.5,0.7-5l-3.2-3.5l7.1-0.9c0.9-0.1,1.5-0.9,1.5-1.7l0.1-21.4
		C66.2,17.7,65.5,16.9,64.7,16.8z M27.4,58.5l-0.1-24.8C34.1,29.8,49.3,21,56,17.1c0,2.3,0.1,21.5,0.1,24.8
		C52,44.3,34.2,54.6,27.4,58.5z M53.2,17.6L27,32.7l-3.8-6.3c-0.1-0.2-0.2-0.5,0-0.7l24.3-14L53.2,17.6z M32,2.6l14.6,8.5L22.8,24.8
		c-0.6,0.4-0.9,1.2-0.4,2l3,5.1c-7-4.1-13.3-7.7-22.1-12.8L32,2.6z M17.2,35.7l0.1,17.5L2.9,44.8L2.8,20
		C33.7,37.9,23,31.7,25.3,33.1l0,0l0,0l-6.6,0.9C17.9,34.1,17.2,34.8,17.2,35.7z M18.9,57.8c-0.4,0-0.6-0.4-0.6-0.7l-0.1-21.4
		c0-0.4,0.3-0.7,0.6-0.7l7.5-1l0,12.6l0,12.2L18.9,57.8z M59.5,50.2L34.3,64.7c-0.1-0.1-4.3-7.2-4-6.8l26.1-15.1l3.6,3.9
		C61,47.8,60.8,49.5,59.5,50.2z M65.1,40c0,0.4-0.3,0.7-0.6,0.7l-7.4,1c0-2.7-0.1-22.3-0.1-24.8l7.5,1c0.4,0,0.6,0.4,0.6,0.7
		L65.1,40z"/><path d="M53.7 22.1c0-.4-.4-.6-.8-.4C51 22.7 60.3 17.4 30 34.9c-.2.1-.3.3-.3.4l.1 18.2c0 .4.4.6.8.4l22.9-13.2c0 0 0 0 0 0l0 0c.2-.1.3-.3.3-.4L53.7 22.1zM52.7 39.4c-5.5-3.2-9.2-5.3-14.3-8.3l14.2-8.2L52.7 39.4zM30.8 52.7l0-17.1 6.7-3.9 14.7 8.6L30.8 52.7zM10.4 40.8c-.7-.4-1.3-.1-1.3.7 0 .8.6 1.8 1.3 2.2.7.4 1.3.1 1.3-.7C11.7 42.2 11.1 41.2 10.4 40.8zM10.5 29.5c-.9-.5-1.7-.1-1.6 1l.3 6.6c0 .8.6 1.7 1.3 2.1.7.4 1.3.1 1.3-.6l.3-6.3C12.1 31.3 11.4 30 10.5 29.5zM36.1 8.3L38 9.4c.2.1.4 0 .5-.1.1-.2 0-.4-.1-.5l-1.9-1.1c-.2-.1-.4 0-.5.1C35.8 8 35.9 8.2 36.1 8.3zM27.7 8.4L32 5.9l2 1.2c.2.1.4 0 .5-.1s0-.4-.1-.5l-2.2-1.3c-.1-.1-.3-.1-.4 0l-4.5 2.6c-.2.1-.2.3-.1.5C27.3 8.4 27.5 8.5 27.7 8.4z"/></svg>